<?xml version="1.0" standalone="no"?>
<!DOCTYPE svg PUBLIC "-//W3C//DTD SVG 20010904//EN"
 "http://www.w3.org/TR/2001/REC-SVG-20010904/DTD/svg10.dtd">
<svg version="1.0" xmlns="http://www.w3.org/2000/svg"
 width="400.000000pt" height="400.000000pt" viewBox="0 0 400.000000 400.000000"
 preserveAspectRatio="xMidYMid meet">
<metadata>
Created by potrace 1.14, written by Peter Selinger 2001-2017
</metadata>
<g transform="translate(0.000000,400.000000) scale(0.100000,-0.100000)"
fill="#000000" stroke="none">
<path d="M1694 3830 c-267 -42 -554 -162 -788 -329 -96 -68 -267 -230 -346
-327 -215 -263 -355 -576 -405 -909 -19 -130 -20 -419 0 -547 50 -332 192
-652 405 -912 79 -97 250 -259 346 -327 227 -162 502 -279 765 -326 148 -26
510 -26 658 0 263 47 537 163 765 326 44 31 133 107 198 170 304 292 491 653
553 1069 19 127 19 417 0 544 -71 472 -315 893 -690 1193 -237 189 -555 329
-855 375 -164 26 -446 26 -606 0z m156 -1252 l0 -653 338 -227 c185 -124 437
-293 559 -375 122 -81 222 -150 223 -154 0 -3 -54 -26 -121 -52 l-121 -47
-152 102 c-83 56 -212 143 -286 193 -74 50 -230 155 -346 233 l-211 141 -174
-61 c-96 -33 -178 -63 -182 -68 -5 -4 135 -103 310 -221 362 -242 747 -500
751 -504 4 -4 -247 -98 -261 -98 -11 0 -594 387 -1020 676 l-117 80 2 691 3
691 125 47 c69 26 126 48 128 48 1 0 2 -288 2 -640 0 -352 2 -640 5 -640 8 0
215 71 251 86 l34 14 0 648 0 648 123 46 c67 26 125 47 130 48 4 0 7 -294 7
-652z m1130 -732 l0 -648 -27 18 c-16 9 -45 28 -65 42 l-38 25 0 571 -1 571
-483 322 c-476 317 -483 323 -490 360 -8 48 -8 108 0 116 3 3 253 -159 555
-361 l548 -367 1 -649z m-657 824 l435 -291 7 -322 c3 -177 5 -411 3 -520 l-3
-197 -67 45 -68 45 0 455 0 455 -375 250 -375 250 0 60 c0 33 2 60 5 60 2 0
200 -131 438 -290z"/>
</g>
</svg>
